<svg xmlns="http://www.w3.org/2000/svg" viewBox="0 0 1080 1080"><defs><style>.cls-1{fill:#fff;}</style></defs><g id="logo_11" data-name="logo 11"><path class="cls-1" d="M920.79,501.76C886.93,462.7,845.31,430,800.12,405a510.2,510.2,0,0,0-155.65-55.32,566.64,566.64,0,0,0-180.35-3.22,515.52,515.52,0,0,0-158.18,49.32c-46.51,23.19-89.75,54.38-125.61,92.06Q174,494.52,168,501.46c-8.57,9.87-10.43,25.79,0,35.36,9.4,8.63,26.19,10.54,35.35,0a408,408,0,0,1,52-50c1.13-.92,2.27-1.82,3.41-2.72.75-.6,4.73-3.7,1.48-1.18s.77-.56,1.53-1.14c1.37-1,2.74-2,4.11-3q7.71-5.66,15.65-11,15.45-10.32,31.73-19.34,16.86-9.36,34.46-17.29c2.78-1.26,5.59-2.46,8.39-3.69,2.53-1.11-2.61,1.09-2.44,1l2.12-.89,5-2q9-3.58,18.08-6.82a501.42,501.42,0,0,1,77.06-20.56c6.9-1.27,13.82-2.37,20.76-3.38,4.76-.7-5,.61-.18,0l4.86-.6q5.3-.63,10.59-1.16,20.67-2,41.44-2.47,21.39-.44,42.77.84c6.87.41,13.75,1,20.6,1.64q4.91.48,9.8,1.06c1.62.19,3.25.39,4.87.6.81.1,1.62.22,2.43.31-1.2-.13-5.22-.73-1.8-.22a521,521,0,0,1,79.4,17.83q18.55,5.78,36.61,13l4.28,1.73,2.13.89c2.56,1.05-2.6-1.1-2.44-1,3,1.4,6.08,2.64,9.1,4q9,4.06,17.83,8.51A451,451,0,0,1,823,478.9c2.36,1.73,4.65,3.55,7,5.26.18.13-4.31-3.37-2.18-1.68.57.45,1.15.89,1.72,1.35q2,1.56,4,3.17,7,5.69,13.82,11.66Q861,510.72,873.56,524q6.09,6.42,11.88,13.13c8.59,9.91,26.66,9.46,35.35,0,9.7-10.57,9.17-24.78,0-35.36Z"/><path class="cls-1" d="M851.43,326c-62.69-54.17-144.08-83.5-225.36-94.64-90.93-12.47-186.53-5.61-272.79,27.1-42.38,16.07-82.06,37.68-116.48,67.36-9.94,8.58-9.45,26.69,0,35.36,10.58,9.72,24.75,9.14,35.35,0,3.17-2.73,6.4-5.36,9.65-8,1.39-1.12,4.42-3-1.37,1,.73-.51,1.43-1.09,2.14-1.62q2.7-2,5.45-4,10.71-7.67,22-14.43,11.71-7,24-13.16,6.27-3.15,12.66-6.07,3.06-1.41,6.15-2.76l2.76-1.19c4.73-2.07-4.84,2-.39.17a482.19,482.19,0,0,1,56.49-19q15.06-4,30.36-7.07,7.8-1.57,15.65-2.9c2.5-.42,5-.83,7.51-1.21s6-1.64,8.42-1.24l-3.25.44q1.26-.18,2.55-.33l4.26-.53c2.57-.31,5.14-.59,7.72-.86q8.24-.87,16.48-1.48,16.8-1.26,33.64-1.52a568.66,568.66,0,0,1,67.3,2.91c2.86.3,5.73.62,8.59,1l3.42.42c.54.07,6.11,1,1.77.22s1.22.18,1.76.26l3.37.5q4.18.63,8.36,1.34,15.61,2.61,31,6.18a473.2,473.2,0,0,1,58.08,17.35c5.27,2,10.46,4.13,15.69,6.18-7.22-2.83.51.25,2.35,1.06q4.1,1.81,8.16,3.72c9.22,4.34,18.29,9,27.13,14.1q12.74,7.31,24.81,15.69,3.07,2.15,6.09,4.36c1.55,1.14,8.31,6.8,1.91,1.37,3.69,3.13,7.55,6.06,11.21,9.23,9.89,8.54,25.77,10.44,35.36,0C860,352,862,335.15,851.43,326Z"/><path class="cls-1" d="M739.07,162.65c-44.12-26.29-96.73-37.06-147.26-41.81-56.4-5.3-114.92-1.78-169.82,12.55-25.22,6.58-50.38,15.82-72.84,29.18-11.24,6.68-16.32,22.8-9,34.2s22.17,16.12,34.2,9q5.88-3.5,12-6.58c2.34-1.18,4.69-2.31,7.07-3.4l3.05-1.37c5.44-2.4-4.84,1.93-.34.12a318.39,318.39,0,0,1,31.65-10.87c11.8-3.36,23.78-6.09,35.85-8.3q4.13-.75,8.27-1.43c3-.49,7.15-1.91,10.14-1.53-.51-.06-6.09.77-1.49.2,1.73-.21,3.46-.43,5.2-.63q5.71-.67,11.44-1.19a512.35,512.35,0,0,1,83.83-.81q9.8.7,19.56,1.8a78.82,78.82,0,0,1,8.68,1.07c-6.91-1.61-1.38-.17.19.06q3.38.5,6.74,1,18.12,3,35.94,7.51a314,314,0,0,1,36,11.58l3.86,1.55c4.57,1.84-5.09-2.26-.95-.38,2.82,1.27,5.64,2.53,8.42,3.89q7.32,3.59,14.32,7.75c11.24,6.7,27.93,2.9,34.2-9,6.38-12.07,3-27-9-34.2Z"/><path class="cls-1" d="M1045,969.27a465,465,0,0,0-24.12-147.95A470.3,470.3,0,0,0,953.56,692,508.27,508.27,0,0,0,846.61,585.57C806.55,556,761.85,533,714.92,516.51c-48.74-17.17-100.41-26.5-152-28.41A521.52,521.52,0,0,0,407.38,506,507.5,507.5,0,0,0,270.8,565.84,495.34,495.34,0,0,0,159.62,661c-31.79,36.93-58.36,78.19-77.53,123A476,476,0,0,0,45,933q-1.49,18.12-1.49,36.29c0,13.08,11.52,25.61,25,25s25-11,25-25q0-18.16,1.49-36.29.72-8.78,1.79-17.52c.08-.67.16-1.34.25-2,.51-4.18-.4,2.57-.37,2.64-.35-.67.45-3.22.57-4,.45-3.11.93-6.2,1.45-9.29a438.51,438.51,0,0,1,16.95-67.56q2.84-8.41,6-16.71,1.41-3.67,2.88-7.33c.57-1.41,1.19-2.82,1.74-4.24,1-2.52-1.42,3.32-1.25,2.95.35-.8.68-1.61,1-2.41q6.86-15.91,14.94-31.26a454,454,0,0,1,36.36-57.91c1.68-2.28,3.4-4.52,5.1-6.77s-2.17,2.78-1.92,2.48c.55-.67,1.07-1.38,1.61-2.06l2.84-3.57q5.31-6.6,10.86-13,11.32-13.08,23.61-25.3t25.49-23.55q6.48-5.56,13.16-10.89l3.61-2.85c3.38-2.67-4.33,3.29-.89.69,2.45-1.85,4.9-3.7,7.38-5.52A478,478,0,0,1,327.08,591q15.66-8.31,31.91-15.45l3.69-1.61c3.8-1.65-5.46,2.27-.39.17q4.35-1.81,8.75-3.53,8.18-3.21,16.48-6.12a486,486,0,0,1,70.05-18.85q8.88-1.7,17.81-3.06c1.38-.22,2.76-.42,4.15-.62l2.07-.3c4.14-.59-2.23.3-2.48.33,3-.35,6-.76,9.05-1.1q18.66-2.1,37.44-2.8A501.38,501.38,0,0,1,601,541c2.79.31,5.57.69,8.36,1-8.07-1-2.29-.3-.41,0l4.83.72q9.27,1.44,18.49,3.22,17.57,3.4,34.87,8.09t34.45,10.72q8.61,3,17.1,6.39,3.76,1.49,7.5,3c5,2.06-4.33-1.87-.4-.17l4.31,1.88A481.16,481.16,0,0,1,792.47,609q14.53,9.16,28.38,19.35c2.3,1.69,4.57,3.41,6.85,5.13,3.44,2.6-4.28-3.36-.9-.69l4.13,3.26q6.68,5.34,13.14,10.9a468.93,468.93,0,0,1,49,48.93q5.53,6.4,10.84,13l2.84,3.58c.4.51.79,1,1.2,1.54.25.3-3.52-4.62-1.91-2.48,1.82,2.43,3.67,4.84,5.48,7.29q10,13.65,19.05,28a457.53,457.53,0,0,1,32.12,61.24c.26.6.51,1.21.78,1.81.16.37-2.25-5.46-1.26-2.95.57,1.42,1.17,2.83,1.74,4.24,1.15,2.84,2.26,5.7,3.35,8.56q3,8,5.76,16.1,5.56,16.62,9.81,33.64T990,904.12q.66,4,1.24,8c.19,1.33.37,2.66.56,4-1.2-8.36-.27-1.94,0,0q1.07,8.75,1.76,17.53c1,11.85,1.41,23.73,1.43,35.61,0,13.08,11.48,25.61,25,25s25-11,25-25Z"/></g></svg>